<svg width="137" height="40" viewBox="0 0 137 40" fill="none" xmlns="http://www.w3.org/2000/svg">
<path d="M6.18555 30.7129C9.60603 36.1 15.5298 39.7419 22.3203 40H11.5469L6.18555 30.7129ZM34.6406 40H23.8672C30.6577 39.7419 36.5815 36.0999 40.002 30.7129L34.6406 40ZM23.0938 1.2168C33.4673 1.21686 41.8769 9.62649 41.877 20C41.877 30.3735 33.4673 38.7831 23.0938 38.7832C12.7202 38.7831 4.31055 30.3735 4.31055 20C4.31058 9.6265 12.7203 1.21689 23.0938 1.2168ZM5.3418 10.748C3.89673 13.5151 3.0791 16.6621 3.0791 20C3.07911 23.3378 3.89681 26.4849 5.3418 29.252L0 20L5.3418 10.748ZM46.1875 20L40.8457 29.252C42.2907 26.4849 43.1084 23.3378 43.1084 20C43.1084 16.6621 42.2908 13.5152 40.8457 10.748L46.1875 20ZM33.582 14.4648C32.6168 14.4649 31.7824 14.678 31.0801 15.1035C30.3814 15.5291 29.8414 16.1505 29.4609 16.9668C29.084 17.7832 28.8941 18.7762 28.8906 19.9453C28.8872 21.1112 29.0755 22.1115 29.4561 22.9453C29.8366 23.7789 30.3779 24.4175 31.0801 24.8604C31.7824 25.3032 32.6168 25.5268 33.582 25.5303C34.5471 25.5303 35.3793 25.3103 36.0781 24.8711C36.7804 24.4283 37.3226 23.7897 37.7031 22.9561C38.0837 22.1223 38.2734 21.1181 38.2734 19.9453C38.2769 18.7795 38.0886 17.7881 37.708 16.9717C37.3275 16.1553 36.7862 15.5339 36.084 15.1084C35.3816 14.6794 34.5473 14.4649 33.582 14.4648ZM7.92383 25.2393H10.7471V19.0527H10.8301L13.1963 25.1562H14.8984L17.2646 19.0947H17.3477V25.2393H20.1719V14.6104H16.5801L14.1094 20.6309H13.9854L11.5146 14.6104H7.92383V25.2393ZM21.4971 16.209V18.6582L23.8223 17.2676H23.8848V25.2393H26.7705V14.6104H24.1133L21.4971 16.209ZM33.582 16.79C33.9139 16.79 34.208 16.9024 34.4639 17.127C34.7199 17.3484 34.9211 17.6917 35.0664 18.1553C35.2116 18.6188 35.2842 19.2156 35.2842 19.9453C35.2876 21.0626 35.1283 21.8828 34.8066 22.4053C34.4883 22.9242 34.0802 23.1836 33.582 23.1836C33.2499 23.1836 32.9538 23.0701 32.6943 22.8418C32.4383 22.6134 32.2381 22.2597 32.0928 21.7822C31.9476 21.3014 31.8764 20.6889 31.8799 19.9453C31.8868 18.8523 32.0475 18.0529 32.3623 17.5479C32.6771 17.0428 33.0839 16.7901 33.582 16.79ZM22.3203 0C15.5299 0.258103 9.60607 3.89921 6.18555 9.28613L11.5469 0H22.3203ZM40.002 9.28613C36.5814 3.89928 30.6575 0.258101 23.8672 0H34.6406L40.002 9.28613Z" fill="#0284E2"/>
<path d="M73.7422 19.0957V26.9844C73.4323 27.3581 72.9538 27.7637 72.3066 28.2012C71.6595 28.6296 70.8255 28.9987 69.8047 29.3086C68.7839 29.6185 67.5488 29.7734 66.0996 29.7734C64.8145 29.7734 63.6432 29.5638 62.5859 29.1445C61.5286 28.7161 60.6172 28.0918 59.8516 27.2715C59.0951 26.4512 58.5117 25.4486 58.1016 24.2637C57.6914 23.0697 57.4863 21.707 57.4863 20.1758V18.9316C57.4863 17.4004 57.6823 16.0378 58.0742 14.8438C58.4753 13.6497 59.0449 12.6426 59.7832 11.8223C60.5215 11.002 61.401 10.3776 62.4219 9.94922C63.4427 9.52083 64.5775 9.30664 65.8262 9.30664C67.5579 9.30664 68.9798 9.58919 70.0918 10.1543C71.2038 10.7103 72.0514 11.485 72.6348 12.4785C73.2272 13.4629 73.5918 14.5931 73.7285 15.8691H69.75C69.6497 15.1947 69.4583 14.6068 69.1758 14.1055C68.8932 13.6042 68.4876 13.2122 67.959 12.9297C67.4395 12.6471 66.765 12.5059 65.9355 12.5059C65.252 12.5059 64.6413 12.6471 64.1035 12.9297C63.5749 13.2031 63.1283 13.6087 62.7637 14.1465C62.3991 14.6842 62.1211 15.3496 61.9297 16.1426C61.7383 16.9355 61.6426 17.8561 61.6426 18.9043V20.1758C61.6426 21.2148 61.7428 22.1354 61.9434 22.9375C62.1439 23.7305 62.4401 24.4004 62.832 24.9473C63.2331 25.485 63.7253 25.8906 64.3086 26.1641C64.8919 26.4375 65.571 26.5742 66.3457 26.5742C66.9928 26.5742 67.5306 26.5195 67.959 26.4102C68.3965 26.3008 68.7474 26.1686 69.0117 26.0137C69.2852 25.8496 69.4948 25.6947 69.6406 25.5488V22.0215H65.8945V19.0957H73.7422ZM80.9609 8.5V29.5H77.0098V8.5H80.9609ZM83.5859 22.2539V21.9668C83.5859 20.8822 83.7409 19.8841 84.0508 18.9727C84.3607 18.0521 84.8118 17.2546 85.4043 16.5801C85.9967 15.9056 86.7259 15.3815 87.5918 15.0078C88.4577 14.625 89.4512 14.4336 90.5723 14.4336C91.6934 14.4336 92.6914 14.625 93.5664 15.0078C94.4414 15.3815 95.1751 15.9056 95.7676 16.5801C96.3691 17.2546 96.8249 18.0521 97.1348 18.9727C97.4447 19.8841 97.5996 20.8822 97.5996 21.9668V22.2539C97.5996 23.3294 97.4447 24.3275 97.1348 25.248C96.8249 26.1595 96.3691 26.957 95.7676 27.6406C95.1751 28.3151 94.446 28.8392 93.5801 29.2129C92.7142 29.5866 91.7207 29.7734 90.5996 29.7734C89.4785 29.7734 88.4805 29.5866 87.6055 29.2129C86.7396 28.8392 86.0059 28.3151 85.4043 27.6406C84.8118 26.957 84.3607 26.1595 84.0508 25.248C83.7409 24.3275 83.5859 23.3294 83.5859 22.2539ZM87.5234 21.9668V22.2539C87.5234 22.8737 87.5781 23.4525 87.6875 23.9902C87.7969 24.528 87.9701 25.002 88.207 25.4121C88.4531 25.8132 88.7721 26.1276 89.1641 26.3555C89.556 26.5833 90.0345 26.6973 90.5996 26.6973C91.1465 26.6973 91.6159 26.5833 92.0078 26.3555C92.3997 26.1276 92.7142 25.8132 92.9512 25.4121C93.1882 25.002 93.3613 24.528 93.4707 23.9902C93.5892 23.4525 93.6484 22.8737 93.6484 22.2539V21.9668C93.6484 21.3652 93.5892 20.8001 93.4707 20.2715C93.3613 19.7337 93.1836 19.2598 92.9375 18.8496C92.7005 18.4303 92.3861 18.1022 91.9941 17.8652C91.6022 17.6283 91.1283 17.5098 90.5723 17.5098C90.0163 17.5098 89.5423 17.6283 89.1504 17.8652C88.7676 18.1022 88.4531 18.4303 88.207 18.8496C87.9701 19.2598 87.7969 19.7337 87.6875 20.2715C87.5781 20.8001 87.5234 21.3652 87.5234 21.9668ZM104.367 9.59375V29.5H100.266V9.59375H104.367ZM112.297 18.0977V21.2969H103.246V18.0977H112.297ZM113.254 9.59375V12.8066H103.246V9.59375H113.254ZM119.543 14.707V29.5H115.592V14.707H119.543ZM115.346 10.8516C115.346 10.2773 115.546 9.80339 115.947 9.42969C116.348 9.05599 116.886 8.86914 117.561 8.86914C118.226 8.86914 118.759 9.05599 119.16 9.42969C119.57 9.80339 119.775 10.2773 119.775 10.8516C119.775 11.4258 119.57 11.8997 119.16 12.2734C118.759 12.6471 118.226 12.834 117.561 12.834C116.886 12.834 116.348 12.6471 115.947 12.2734C115.546 11.8997 115.346 11.4258 115.346 10.8516ZM125.969 14.707L128.416 19.2051L130.932 14.707H135.129L130.945 21.9395L135.32 29.5H131.109L128.443 24.7422L125.777 29.5H121.566L125.941 21.9395L121.758 14.707H125.969Z" fill="white"/>
</svg>
