<svg width="49" height="48" viewBox="0 0 49 48" fill="none" xmlns="http://www.w3.org/2000/svg">
<path d="M42.3582 6.63477V26.0371C42.3579 36.0931 34.9144 44.5659 24.9968 45.9043L24.99 45.9053L24.5437 45.9609L24.3679 45.9834L24.1921 45.9639C14.0393 44.8356 6.3584 36.2523 6.35815 26.0371V6.63477L24.3582 2.13379L42.3582 6.63477ZM9.35815 8.97656V26.0371C9.3584 34.6679 15.8064 41.9268 24.3572 42.9609L24.6013 42.9307C33.0312 41.7904 39.3579 34.5862 39.3582 26.0371V8.97656L24.3582 5.22656L9.35815 8.97656ZM35.5906 22.5L29.9744 32.2266H18.7419L13.1257 22.499L18.7419 12.7715H29.9744L35.5906 22.5ZM16.5906 22.499L20.4744 29.2266H28.2429L32.1267 22.499L28.2429 15.7715H20.4744L16.5906 22.499Z" fill="white"/>
</svg>
