<svg width="49" height="48" viewBox="0 0 49 48" fill="none" xmlns="http://www.w3.org/2000/svg">
<path d="M31.8596 4.14091C33.2835 3.75916 34.7805 4.19316 36.0256 4.9456C37.3832 5.76606 38.6454 7.0736 39.594 8.68779L39.7668 8.9915C40.6058 10.5172 41.0686 12.1323 41.1106 13.6097C41.1275 14.2077 41.0729 14.8164 40.9299 15.3977C41.3043 15.5533 41.6655 15.7443 42.0051 15.9602C43.3388 16.8082 44.5699 18.1536 45.4924 19.805L45.6604 20.1165C46.4765 21.6778 46.9247 23.3232 46.9651 24.8216C47.007 26.3799 46.6041 28.0178 45.4074 29.0726L45.3059 29.1614L45.1916 29.2308L20.4592 44.0374L20.3274 43.8167C18.8101 44.6218 17.085 44.2684 15.6926 43.4954C14.5206 42.8447 13.4127 41.8208 12.5032 40.5452C12.2101 40.911 11.8519 41.2333 11.4133 41.4866C9.86674 42.3795 8.08303 42.0249 6.65256 41.2308C5.19267 40.4202 3.83151 39.0312 2.8303 37.2972C1.829 35.5628 1.30612 33.6887 1.33421 32.0188C1.36179 30.3832 1.94614 28.6617 3.49241 27.7688C3.94867 27.5055 4.42609 27.3524 4.90842 27.2854C4.23778 25.8387 3.89437 24.3416 3.91721 22.9798C3.94458 21.3532 4.52208 19.6416 6.04905 18.7444L6.00315 18.6624L31.3371 4.33525L31.4514 4.27177L31.5754 4.22783L31.8596 4.14091ZM15.8713 32.8479C15.1227 32.4325 14.5817 32.3899 14.2356 32.4759L14.0569 32.5833L14.0354 32.5481C14.0221 32.5549 14.0086 32.5606 13.9963 32.5677C13.6899 32.7446 13.3184 33.2436 13.3 34.3323C13.2951 34.627 13.3186 34.9455 13.3713 35.2806C13.4002 35.4165 13.4258 35.5519 13.4485 35.6868C13.6158 36.4454 13.9278 37.2722 14.4045 38.0979C15.1862 39.4519 16.1909 40.4246 17.1135 40.9368C18.0655 41.4653 18.683 41.3939 18.9895 41.2171C19.2958 41.0401 19.6664 40.5411 19.6848 39.4524C19.7025 38.3973 19.362 37.0408 18.5803 35.6868C17.7986 34.333 16.7939 33.3601 15.8713 32.8479ZM24.7033 26.2483L17.6037 30.472C18.9451 31.3004 20.1847 32.6135 21.1145 34.2239C22.0831 35.9016 22.603 37.7094 22.6106 39.3372L43.5432 26.805C43.8082 26.5159 44.0655 25.9135 44.0383 24.9007C44.0114 23.902 43.7032 22.6898 43.0686 21.4749L42.9377 21.2327C42.2135 19.9362 41.2961 18.9791 40.4338 18.431C39.9884 18.1478 39.6079 18.0026 39.2981 17.9417L24.7033 26.2483ZM6.83128 30.5833C5.8799 30.0554 5.26278 30.1264 4.95628 30.303C4.64987 30.4799 4.27834 30.9797 4.25999 32.0686C4.24233 33.1236 4.58301 34.4796 5.36448 35.8333C6.14616 37.1872 7.15086 38.16 8.07346 38.6722C9.02566 39.2008 9.64298 39.1293 9.94944 38.9524C10.2558 38.7754 10.6264 38.2765 10.6448 37.1878C10.6498 36.8858 10.6242 36.5593 10.5686 36.2151C10.5426 36.0913 10.5191 35.968 10.4983 35.845C10.3315 35.0835 10.0192 34.2528 9.54026 33.4231C8.75857 32.0692 7.75388 31.0955 6.83128 30.5833ZM40.6926 22.8362L23.5412 32.5335L22.1008 29.9866L39.2512 20.2874L40.6926 22.8362ZM9.41428 21.5442C8.4623 21.0158 7.84477 21.0871 7.53831 21.264C7.23196 21.441 6.86134 21.94 6.84299 23.0286C6.82526 24.0836 7.16594 25.4395 7.94749 26.7933C8.72916 28.1471 9.7329 29.1209 10.6555 29.6331C11.6078 30.1618 12.226 30.0893 12.5324 29.9124C12.5502 29.9021 12.5661 29.8878 12.5842 29.8753L12.5432 29.802L12.8205 29.6438C13.0314 29.3662 13.2141 28.8981 13.2268 28.1477C13.2444 27.0927 12.9039 25.7368 12.1223 24.3831C11.3407 23.0294 10.3368 22.0564 9.41428 21.5442ZM34.5119 7.45146C33.6684 6.94163 33.0248 6.86997 32.636 6.96318L11.1018 19.1409C12.4601 19.9676 13.7175 21.2912 14.6574 22.9192C15.5703 24.5004 16.084 26.1976 16.1467 27.7503L23.2824 23.6888L37.4485 15.263L37.5764 15.2161C37.6991 15.1711 37.8227 15.1337 37.9465 15.1019C38.0955 14.7834 38.2027 14.3245 38.1848 13.6927C38.1578 12.7423 37.8481 11.579 37.2033 10.4056L37.0705 10.1712C36.335 8.91948 35.4002 7.98836 34.5119 7.45146ZM34.1067 11.8597L16.9553 21.5579L15.5149 19.011L32.6653 9.31181L34.1067 11.8597Z" fill="white"/>
</svg>
