<svg width="48" height="48" viewBox="0 0 48 48" fill="none" xmlns="http://www.w3.org/2000/svg">
<g clip-path="url(#clip0_607_4046)">
<path d="M27.2686 16.1543C27.2688 23.971 33.606 30.3076 41.4229 30.3076V32.7695C33.606 32.7695 27.2687 39.106 27.2686 46.9229H24.8076C24.8075 39.106 18.4702 32.7695 10.6533 32.7695V30.3076C18.4701 30.3076 24.8074 23.971 24.8076 16.1543H27.2686ZM26.0381 22.4375C24.3527 26.5596 21.0596 29.8526 16.9375 31.5381C21.0595 33.2235 24.3526 36.5167 26.0381 40.6387C27.7235 36.5169 31.0168 33.2235 35.1387 31.5381C31.0166 29.8526 27.7235 26.5596 26.0381 22.4375ZM41.7295 8.1543C41.7297 11.7227 44.6229 14.6152 48.1914 14.6152V17.0771C44.6229 17.0771 41.7297 19.9696 41.7295 23.5381H39.2676C39.2674 19.9697 36.375 17.0773 32.8066 17.0771V14.6152C36.375 14.6151 39.2673 11.7226 39.2676 8.1543H41.7295ZM11.8838 0.154297C11.884 5.25203 16.0165 9.38464 21.1143 9.38477V11.8457C16.0163 11.8458 11.8838 15.9792 11.8838 21.0771H9.42188C9.42188 15.9791 5.28942 11.8457 0.191406 11.8457V9.38477C5.28927 9.38477 9.42163 5.2521 9.42188 0.154297H11.8838ZM40.499 12.6777C39.7293 13.9838 38.6361 15.0759 37.3301 15.8457C38.6362 16.6154 39.7292 17.7086 40.499 19.0146C41.2687 17.7087 42.3611 16.6154 43.667 15.8457C42.3611 15.076 41.2687 13.9836 40.499 12.6777ZM10.6533 5.37891C9.52161 7.64028 7.67833 9.48347 5.41699 10.6152C7.67818 11.7469 9.52156 13.5895 10.6533 15.8506C11.785 13.5897 13.6278 11.7469 15.8887 10.6152C13.6274 9.48346 11.785 7.64019 10.6533 5.37891Z" fill="white"/>
</g>
<defs>
<clipPath id="clip0_607_4046">
<rect width="48" height="48" fill="white"/>
</clipPath>
</defs>
</svg>
