<svg width="49" height="48" viewBox="0 0 49 48" fill="none" xmlns="http://www.w3.org/2000/svg">
<g clip-path="url(#clip0_607_4024)">
<path d="M30.3568 11.9824C31.8347 11.5862 33.3887 12.0374 34.681 12.8184C36.0901 13.67 37.4006 15.0267 38.3851 16.7021L38.5648 17.0176C39.4358 18.6014 39.9159 20.2779 39.9594 21.8115C40.0047 23.414 39.5656 25.0913 38.2885 26.1611L38.183 26.249L12.4828 40.875C12.2815 41.0551 12.061 41.2215 11.8139 41.3643C10.2085 42.2911 8.35729 41.9229 6.87245 41.0986C5.35704 40.2572 3.94396 38.8156 2.90468 37.0156C1.86535 35.2154 1.32283 33.2703 1.35194 31.5371C1.38035 29.8489 1.98028 28.073 3.56483 27.1416L3.51698 27.0566L8.88808 24.0186C8.76994 24.0084 8.65436 24.0009 8.54237 23.9951L8.69862 20.9609C9.87568 21.0216 11.3339 21.2677 12.8451 21.7803L15.5961 20.2236C15.4678 20.2122 15.3422 20.2035 15.2211 20.1973L15.3773 17.1631C16.5602 17.224 18.027 17.4725 19.5463 17.9902L22.3256 16.418C22.2343 16.4108 22.1445 16.4039 22.057 16.3994L22.2133 13.3652C23.3767 13.4252 24.8153 13.6654 26.308 14.166L29.8148 12.1846L29.933 12.1182L30.0619 12.0723L30.3568 11.9824ZM7.058 30.0469C6.07028 29.4987 5.42989 29.5725 5.11171 29.7559C4.79366 29.9395 4.4081 30.4575 4.38905 31.5879C4.37063 32.683 4.72421 34.0908 5.53554 35.4961C6.34694 36.9015 7.38937 37.9117 8.34706 38.4434C9.33543 38.992 9.97622 38.917 10.2943 38.7334C10.313 38.7226 10.3299 38.7075 10.349 38.6943L10.306 38.6191L10.5941 38.4541C10.8129 38.1659 11.0029 37.6808 11.016 36.9023C11.0344 35.8072 10.6809 34.3995 9.86952 32.9941C9.05812 31.5888 8.01567 30.5785 7.058 30.0469ZM8.80995 27.5518C10.22 28.4098 11.5246 29.7846 12.5004 31.4746C13.448 33.1159 13.9812 34.8775 14.0463 36.4893L18.6185 33.8877C18.6499 30.2581 17.1618 27.9569 15.2914 26.4766C14.6008 25.9301 13.8461 25.4892 13.0795 25.1377L8.80995 27.5518ZM40.1693 6.0166L48.5101 20.4648L42.3578 33.1836L39.2387 31.6758L44.5932 20.6074L38.0853 9.33691L25.8236 8.43945L26.0766 4.98438L40.1693 6.0166ZM16.182 23.3828C16.5203 23.6026 16.8529 23.8399 17.1762 24.0957C19.4319 25.8811 21.1845 28.5232 21.5746 32.2051L25.2982 30.085C25.3281 26.4583 23.8396 24.1593 21.9701 22.6797C21.2852 22.1377 20.5378 21.6987 19.7777 21.3486L16.182 23.3828ZM22.8773 19.5957C23.2101 19.8125 23.5377 20.0461 23.8559 20.2979C26.1107 22.0826 27.8624 24.7237 28.2533 28.4033L32.1342 26.1943C32.1381 22.6213 30.6595 20.3488 28.806 18.8818C28.1011 18.324 27.3293 17.8764 26.5463 17.5215L22.8773 19.5957ZM33.1098 15.4189C32.2342 14.8899 31.566 14.8154 31.1625 14.9121L29.6576 15.7617C30.0096 15.9886 30.356 16.2342 30.6918 16.5C32.9288 18.2706 34.6713 20.8843 35.0805 24.5186L36.4125 23.7607C36.6872 23.4766 36.9504 22.8922 36.9223 21.8975C36.8943 20.9109 36.573 19.7035 35.9037 18.4854L35.765 18.2412C35.0016 16.9422 34.0316 15.9762 33.1098 15.4189Z" fill="white"/>
</g>
<defs>
<clipPath id="clip0_607_4024">
<rect width="48" height="48" fill="white" transform="translate(0.333374)"/>
</clipPath>
</defs>
</svg>
