<svg width="49" height="48" viewBox="0 0 49 48" fill="none" xmlns="http://www.w3.org/2000/svg">
<g clip-path="url(#clip0_607_4000)">
<path d="M31.3328 4.50098C34.015 5.41788 36.4453 6.8709 38.4978 8.73145L43.3972 7.10156L48.6667 16.2285L44.8064 19.6523C45.1082 21.0548 45.2712 22.5091 45.2712 24L45.2595 24.6992C45.2177 25.9453 45.0615 27.1633 44.8074 28.3447L48.6667 31.7715L43.3972 40.8984L38.4978 39.2666C36.4452 41.1274 34.0152 42.5811 31.3328 43.498L30.241 48.3779H19.0925L17.9998 43.498C15.3175 42.581 12.8863 41.1276 10.8337 39.2666L5.93628 40.8984L0.666748 31.7725L4.52515 28.3457C4.27109 27.1638 4.1157 25.9453 4.07397 24.6992L4.06226 24C4.06226 22.51 4.22272 21.0558 4.52417 19.6533L0.666748 16.2285L5.93628 7.10156L10.8337 8.73145C12.8863 6.87074 15.3176 5.41798 17.9998 4.50098L19.0925 -0.37793H30.241L31.3328 4.50098ZM18.2429 39.8711C18.6312 40.0284 19.0258 40.1737 19.4275 40.3027L19.9597 40.4648L20.9558 40.749L21.8835 44.8926H27.45L28.3767 40.749L29.3728 40.4648C30.1481 40.2437 30.9003 39.9665 31.6267 39.6426L28.5974 34.7959H20.781L18.2429 39.8711ZM7.6355 25.7422C7.73105 26.6864 7.90218 27.6075 8.14429 28.499L8.42749 29.541L5.10522 32.4902L7.53198 36.6943L11.7527 35.2891L12.5144 36.0566C13.3209 36.8695 14.2086 37.6008 15.1628 38.2393L17.6033 33.3574L13.2068 25.7422H7.6355ZM31.7664 33.292L34.6492 37.9053C35.4221 37.3491 36.1485 36.7315 36.8181 36.0566L37.5798 35.2891L41.8005 36.6943L44.2263 32.4902L40.905 29.542L41.1882 28.499L41.3259 27.959C41.4969 27.237 41.6205 26.4967 41.697 25.7422H36.1267L31.7664 33.292ZM16.2253 24L20.446 31.3115H28.8884L33.1091 24L28.8884 16.6885H20.446L16.2253 24ZM14.3103 10.3691C13.6761 10.852 13.0753 11.3772 12.5144 11.9424L11.7527 12.71L7.53198 11.3047L5.1062 15.5088L8.42749 18.457L8.14429 19.5C7.90207 20.3917 7.72994 21.3132 7.63452 22.2578H13.2068L17.3044 15.1592L14.3103 10.3691ZM32.0281 15.1592L36.1267 22.2578H41.699C41.6033 21.3134 41.4305 20.392 41.1882 19.5L40.905 18.457L44.2263 15.5088L41.8005 11.3047L37.5798 12.71L36.8181 11.9434C36.2572 11.3781 35.6564 10.8531 35.0222 10.3701L32.0281 15.1592ZM20.9558 7.25L19.9597 7.53418C19.0332 7.79851 18.1386 8.13991 17.283 8.5498L20.1921 13.2041H29.1414L32.0496 8.55078C31.1939 8.14074 30.2994 7.7985 29.3728 7.53418L28.3767 7.25L27.45 3.10742H21.8835L20.9558 7.25Z" fill="white"/>
</g>
<defs>
<clipPath id="clip0_607_4000">
<rect width="48" height="48" fill="white" transform="translate(0.666748)"/>
</clipPath>
</defs>
</svg>
