<svg width="48" height="48" viewBox="0 0 48 48" fill="none" xmlns="http://www.w3.org/2000/svg">
<path d="M16.9355 16.7891L16.931 16.7928L16.9267 16.797L16.9355 16.7891ZM36.8437 16.4161C36.7045 16.282 36.5502 16.1646 36.3837 16.0665C36.1481 15.9278 35.8865 15.8389 35.6152 15.8054C35.3438 15.7718 35.0685 15.7942 34.8062 15.8713C34.5438 15.9484 34.3001 16.0784 34.09 16.2534C33.88 16.4284 33.7081 16.6447 33.5849 16.8887C32.8959 18.2461 31.9458 19.4541 30.7889 20.4434C30.9658 19.4466 31.055 18.4363 31.0555 17.4239C31.0592 14.3441 30.2467 11.3183 28.7008 8.65462C27.1549 5.99092 24.9307 3.78446 22.2547 2.25989C21.9599 2.09278 21.6275 2.00331 21.2887 1.99986C20.9498 1.99641 20.6157 2.0791 20.3176 2.24017C20.0194 2.40124 19.7671 2.63541 19.5843 2.92071C19.4014 3.20601 19.2941 3.53308 19.2723 3.87123C19.1604 5.76758 18.6646 7.62146 17.8151 9.32056C16.9655 11.0197 15.7799 12.5286 14.3299 13.7559L13.869 14.1309C12.3528 15.1511 11.0108 16.4088 9.8944 17.8555C8.15903 20.0418 6.95689 22.6022 6.38331 25.3339C5.80974 28.0656 5.8805 30.8933 6.58999 33.5929C7.29948 36.2925 8.62819 38.7896 10.4707 40.8863C12.3133 42.9829 14.619 44.6215 17.205 45.672C17.5087 45.796 17.8382 45.8435 18.1645 45.8101C18.4908 45.7767 18.8038 45.6636 19.0761 45.4806C19.3483 45.2976 19.5713 45.0505 19.7255 44.761C19.8796 44.4714 19.9601 44.1484 19.9599 43.8204C19.9585 43.6082 19.9249 43.3975 19.8603 43.1954C19.4129 41.5135 19.284 39.7626 19.4804 38.0333C21.3729 41.6027 24.4107 44.4321 28.1054 46.0665C28.5564 46.2682 29.0663 46.2954 29.5361 46.1427C32.4552 45.2005 35.085 43.5275 37.1754 41.2828C39.2659 39.038 40.7476 36.296 41.4799 33.3173C42.2121 30.3385 42.1705 27.2221 41.3591 24.2639C40.5477 21.3058 38.9933 18.6043 36.8437 16.4161ZM29.0341 42.0782C27.2908 41.1947 25.7529 39.9541 24.5204 38.4372C23.288 36.9202 22.3886 35.1609 21.8808 33.2735C21.7257 32.638 21.6057 31.9945 21.5214 31.3458C21.4643 30.9327 21.2795 30.5478 20.9929 30.2449C20.7062 29.9419 20.3321 29.7362 19.9228 29.6563C19.7967 29.6315 19.6685 29.619 19.5399 29.6192C19.1884 29.6191 18.8431 29.7117 18.5388 29.8876C18.2344 30.0635 17.9819 30.3166 17.8065 30.6212C16.1471 33.4835 15.3125 36.7493 15.3954 40.0568C13.9359 38.922 12.7161 37.5088 11.8068 35.8991C10.8974 34.2895 10.3166 32.5153 10.0979 30.6796C9.8793 28.8438 10.0272 26.9828 10.533 25.2046C11.0389 23.4264 11.8926 21.7663 13.0448 20.3204C13.9196 19.1841 14.975 18.199 16.1688 17.4044C16.2205 17.3711 16.2701 17.3346 16.3173 17.2951C16.3173 17.2951 16.9106 16.8041 16.9309 16.7929C19.7803 14.3828 21.8069 11.1439 22.7284 7.52749C24.9075 9.54195 26.3606 12.2195 26.8619 15.1445C27.3632 18.0695 26.8848 21.0781 25.5009 23.7033C25.318 24.0536 25.243 24.4502 25.2853 24.8431C25.3276 25.2359 25.4853 25.6075 25.7385 25.9108C25.9917 26.2142 26.3291 26.4358 26.7081 26.5476C27.0871 26.6595 27.4907 26.6566 27.868 26.5393C30.9316 25.5789 33.6274 23.7031 35.5927 21.1643C36.7738 22.9089 37.5459 24.8975 37.8517 26.982C38.1574 29.0665 37.9887 31.1931 37.3583 33.2034C36.7279 35.2136 35.652 37.0557 34.2107 38.5923C32.7694 40.129 30.9999 41.3206 29.0341 42.0783L29.0341 42.0782Z" fill="white"/>
</svg>
